<svg width="94" height="96" viewBox="0 0 94 96" fill="none" xmlns="http://www.w3.org/2000/svg">
<g clip-path="url(#clip0_160_3940)">
<g opacity="0.5">
<path d="M86.2178 25.5925V71.3376L46.6016 94.2107L6.98535 71.3376V25.5925L46.6016 2.72046L86.2178 25.5925Z" fill="#9EB8FF" fill-opacity="0.22" stroke="#CBD5F4" stroke-width="1.48446"/>
<ellipse cx="7.45439" cy="70.8349" rx="2.79375" ry="2.79612" fill="url(#paint0_radial_160_3940)"/>
<ellipse cx="7.45439" cy="25.165" rx="2.79375" ry="2.79612" fill="url(#paint1_radial_160_3940)"/>
<ellipse cx="86.677" cy="70.8349" rx="2.79375" ry="2.79612" fill="url(#paint2_radial_160_3940)"/>
<ellipse cx="86.677" cy="25.165" rx="2.79375" ry="2.79612" fill="url(#paint3_radial_160_3940)"/>
</g>
<g clip-path="url(#clip1_160_3940)">
<g clip-path="url(#clip2_160_3940)">
<g clip-path="url(#clip3_160_3940)">
<g clip-path="url(#clip4_160_3940)">
<g opacity="0.3" filter="url(#filter0_f_160_3940)">
<ellipse cx="43.4132" cy="55.5199" rx="21.1471" ry="15.9537" fill="black"/>
</g>
<g clip-path="url(#clip5_160_3940)">
<g clip-path="url(#clip6_160_3940)">
<g clip-path="url(#clip7_160_3940)">
<g clip-path="url(#clip8_160_3940)">
<path d="M63.3291 43.9744H66.7484L67.4475 42.3547L73.2134 38.2725L73.2136 40.4629L73.2134 41.7815V64.1201L62.6733 68.6992L63.3291 67.8758V43.9744Z" fill="url(#paint4_linear_160_3940)"/>
<path d="M67.0529 42.0509L44.8772 22.1911C44.4081 21.7742 43.6831 21.7742 43.214 22.1911L21.0382 38.9046C20.2279 39.6327 20.758 40.9423 21.8667 40.9423H24.4559V64.3665C24.4559 65.0183 25.0103 65.5527 25.6866 65.5527L62.2096 68.699C62.8858 68.699 63.4402 68.1647 63.4402 67.5129V44.0886H66.2244C67.3332 44.0886 67.8693 42.7791 67.0529 42.0509Z" fill="url(#paint5_radial_160_3940)"/>
</g>
</g>
</g>
</g>
</g>
<path d="M44.1592 21.8233L50.6994 19.4702L73.2134 38.2742L67.4473 42.3562L44.1592 21.8233Z" fill="url(#paint6_linear_160_3940)" stroke="url(#paint7_linear_160_3940)" stroke-width="0.750656"/>
</g>
</g>
<g clip-path="url(#clip9_160_3940)">
<ellipse cx="48.9545" cy="44.192" rx="32.3456" ry="12.1346" stroke="url(#paint8_linear_160_3940)" stroke-width="2.69361" stroke-linecap="round" stroke-linejoin="round"/>
<g clip-path="url(#clip10_160_3940)">
<ellipse cx="24.0184" cy="51.5947" rx="3.36949" ry="3.37568" fill="url(#paint9_radial_160_3940)"/>
<ellipse cx="75.2159" cy="51.5947" rx="3.3883" ry="3.37568" fill="url(#paint10_radial_160_3940)"/>
<ellipse cx="49.6114" cy="55.642" rx="4.71978" ry="4.72942" fill="url(#paint11_radial_160_3940)"/>
</g>
</g>
</g>
</g>
<defs>
<filter id="filter0_f_160_3940" x="17.2596" y="34.5597" width="52.3069" height="41.9205" filterUnits="userSpaceOnUse" color-interpolation-filters="sRGB">
<feFlood flood-opacity="0" result="BackgroundImageFix"/>
<feBlend mode="normal" in="SourceGraphic" in2="BackgroundImageFix" result="shape"/>
<feGaussianBlur stdDeviation="2.50325" result="effect1_foregroundBlur_160_3940"/>
</filter>
<radialGradient id="paint0_radial_160_3940" cx="0" cy="0" r="1" gradientUnits="userSpaceOnUse" gradientTransform="translate(7.45439 69.3449) rotate(90) scale(4.28611 4.27515)">
<stop stop-color="white"/>
<stop offset="1" stop-color="#A5B8F8"/>
</radialGradient>
<radialGradient id="paint1_radial_160_3940" cx="0" cy="0" r="1" gradientUnits="userSpaceOnUse" gradientTransform="translate(7.45439 23.675) rotate(90) scale(4.28611 4.27515)">
<stop stop-color="white"/>
<stop offset="1" stop-color="#A5B8F8"/>
</radialGradient>
<radialGradient id="paint2_radial_160_3940" cx="0" cy="0" r="1" gradientUnits="userSpaceOnUse" gradientTransform="translate(86.677 69.3449) rotate(90) scale(4.28611 4.27515)">
<stop stop-color="white"/>
<stop offset="1" stop-color="#A5B8F8"/>
</radialGradient>
<radialGradient id="paint3_radial_160_3940" cx="0" cy="0" r="1" gradientUnits="userSpaceOnUse" gradientTransform="translate(86.677 23.675) rotate(90) scale(4.28611 4.27515)">
<stop stop-color="white"/>
<stop offset="1" stop-color="#A5B8F8"/>
</radialGradient>
<linearGradient id="paint4_linear_160_3940" x1="71.0825" y1="26.1652" x2="71.0825" y2="64.8694" gradientUnits="userSpaceOnUse">
<stop stop-color="#A792F8"/>
<stop offset="1" stop-color="#2451F2"/>
</linearGradient>
<radialGradient id="paint5_radial_160_3940" cx="0" cy="0" r="1" gradientUnits="userSpaceOnUse" gradientTransform="translate(54.5253 38.7919) rotate(139.954) scale(60.5998 60.6042)">
<stop stop-color="#00E3FF"/>
<stop offset="0.536281" stop-color="#3C65F6"/>
<stop offset="1" stop-color="#0037FA"/>
</radialGradient>
<linearGradient id="paint6_linear_160_3940" x1="35.7446" y1="26.8451" x2="51.4924" y2="54.6557" gradientUnits="userSpaceOnUse">
<stop stop-color="#FDFFFF"/>
<stop offset="0.247958" stop-color="#F6C5AB"/>
<stop offset="0.574501" stop-color="#F1A0A4"/>
<stop offset="1" stop-color="#0B63FC"/>
</linearGradient>
<linearGradient id="paint7_linear_160_3940" x1="45.3235" y1="28.8263" x2="56.1456" y2="33.3568" gradientUnits="userSpaceOnUse">
<stop stop-color="white" stop-opacity="0.632219"/>
<stop offset="1" stop-color="white" stop-opacity="0.01"/>
</linearGradient>
<linearGradient id="paint8_linear_160_3940" x1="31.5685" y1="44.192" x2="31.5685" y2="57.4774" gradientUnits="userSpaceOnUse">
<stop stop-color="#00DAFF" stop-opacity="0.01"/>
<stop offset="0.174608" stop-color="#00DAFF" stop-opacity="0.289894"/>
<stop offset="0.802806" stop-color="#7EF1FF"/>
<stop offset="1" stop-color="#E1FFFB"/>
</linearGradient>
<radialGradient id="paint9_radial_160_3940" cx="0" cy="0" r="1" gradientUnits="userSpaceOnUse" gradientTransform="translate(24.0184 49.7958) rotate(69.0118) scale(6.87744 6.86806)">
<stop stop-color="white"/>
<stop offset="0.378518" stop-color="#7CF1FF"/>
<stop offset="1" stop-color="#026BB4"/>
</radialGradient>
<radialGradient id="paint10_radial_160_3940" cx="0" cy="0" r="1" gradientUnits="userSpaceOnUse" gradientTransform="translate(75.2159 49.7958) rotate(68.9049) scale(6.88238 6.90146)">
<stop stop-color="white"/>
<stop offset="0.378518" stop-color="#7CF1FF"/>
<stop offset="1" stop-color="#026BB4"/>
</radialGradient>
<radialGradient id="paint11_radial_160_3940" cx="0" cy="0" r="1" gradientUnits="userSpaceOnUse" gradientTransform="translate(49.6114 53.1218) rotate(69.0158) scale(9.63522 9.62063)">
<stop stop-color="white"/>
<stop offset="0.378518" stop-color="#7CF1FF"/>
<stop offset="1" stop-color="#026BB4"/>
</radialGradient>
<clipPath id="clip0_160_3940">
<rect width="93.2039" height="96" fill="white"/>
</clipPath>
<clipPath id="clip1_160_3940">
<rect width="69.1836" height="62.4209" fill="white" transform="translate(12.1167 16.7766)"/>
</clipPath>
<clipPath id="clip2_160_3940">
<rect width="52.5672" height="52.0033" fill="white" transform="translate(20.6465 19.4702)"/>
</clipPath>
<clipPath id="clip3_160_3940">
<rect width="52.5672" height="52.0033" fill="white" transform="translate(20.6465 19.4702)"/>
</clipPath>
<clipPath id="clip4_160_3940">
<rect width="52.5672" height="49.5951" fill="white" transform="translate(20.6465 21.8784)"/>
</clipPath>
<clipPath id="clip5_160_3940">
<rect width="52.5672" height="46.8206" fill="white" transform="translate(20.6465 21.8784)"/>
</clipPath>
<clipPath id="clip6_160_3940">
<rect width="52.5672" height="46.8206" fill="white" transform="translate(20.6465 21.8784)"/>
</clipPath>
<clipPath id="clip7_160_3940">
<rect width="52.5672" height="46.8206" fill="white" transform="translate(20.6465 21.8784)"/>
</clipPath>
<clipPath id="clip8_160_3940">
<rect width="52.5672" height="46.8206" fill="white" transform="translate(20.6465 21.8784)"/>
</clipPath>
<clipPath id="clip9_160_3940">
<rect width="64.6912" height="28.3141" fill="white" transform="translate(16.6089 32.0574)"/>
</clipPath>
<clipPath id="clip10_160_3940">
<rect width="57.9553" height="12.1524" fill="white" transform="translate(20.6489 48.219)"/>
</clipPath>
</defs>
</svg>
