<svg width="24" height="24" viewBox="0 0 24 24" fill="none" xmlns="http://www.w3.org/2000/svg">
<path d="M16.875 13.125H15.375V10.875H16.875C17.6167 10.875 18.3417 10.6551 18.9584 10.243C19.5751 9.83096 20.0557 9.24529 20.3396 8.56006C20.6234 7.87484 20.6976 7.12084 20.5529 6.39341C20.4083 5.66598 20.0511 4.9978 19.5267 4.47335C19.0022 3.9489 18.334 3.59175 17.6066 3.44706C16.8792 3.30236 16.1252 3.37662 15.4399 3.66045C14.7547 3.94428 14.169 4.42493 13.757 5.04161C13.3449 5.6583 13.125 6.38332 13.125 7.125V8.625H10.875V7.125C10.875 6.38332 10.6551 5.6583 10.243 5.04161C9.83096 4.42493 9.24529 3.94428 8.56006 3.66045C7.87484 3.37662 7.12084 3.30236 6.39341 3.44706C5.66598 3.59175 4.9978 3.9489 4.47335 4.47335C3.9489 4.9978 3.59175 5.66598 3.44706 6.39341C3.30236 7.12084 3.37662 7.87484 3.66045 8.56006C3.94428 9.24529 4.42493 9.83096 5.04161 10.243C5.6583 10.6551 6.38332 10.875 7.125 10.875H8.625V13.125H7.125C6.38332 13.125 5.6583 13.3449 5.04161 13.757C4.42493 14.169 3.94428 14.7547 3.66045 15.4399C3.37662 16.1252 3.30236 16.8792 3.44706 17.6066C3.59175 18.334 3.9489 19.0022 4.47335 19.5267C4.9978 20.0511 5.66598 20.4083 6.39341 20.5529C7.12084 20.6976 7.87484 20.6234 8.56006 20.3396C9.24529 20.0557 9.83096 19.5751 10.243 18.9584C10.6551 18.3417 10.875 17.6167 10.875 16.875V15.375H13.125V16.875C13.125 17.6167 13.3449 18.3417 13.757 18.9584C14.169 19.5751 14.7547 20.0557 15.4399 20.3396C16.1252 20.6234 16.8792 20.6976 17.6066 20.5529C18.334 20.4083 19.0022 20.0511 19.5267 19.5267C20.0511 19.0022 20.4083 18.334 20.5529 17.6066C20.6976 16.8792 20.6234 16.1252 20.3396 15.4399C20.0557 14.7547 19.5751 14.169 18.9584 13.757C18.3417 13.3449 17.6167 13.125 16.875 13.125ZM15.375 7.125C15.375 6.82833 15.463 6.53832 15.6278 6.29165C15.7926 6.04497 16.0269 5.85271 16.301 5.73918C16.5751 5.62565 16.8767 5.59595 17.1676 5.65382C17.4586 5.7117 17.7259 5.85456 17.9357 6.06434C18.1454 6.27412 18.2883 6.54139 18.3462 6.83237C18.4041 7.12334 18.3744 7.42494 18.2608 7.69903C18.1473 7.97312 17.955 8.20738 17.7084 8.37221C17.4617 8.53703 17.1717 8.625 16.875 8.625H15.375V7.125ZM5.625 7.125C5.625 6.72718 5.78304 6.34565 6.06434 6.06434C6.34565 5.78304 6.72718 5.625 7.125 5.625C7.52283 5.625 7.90436 5.78304 8.18566 6.06434C8.46697 6.34565 8.625 6.72718 8.625 7.125V8.625H7.125C6.72718 8.625 6.34565 8.46697 6.06434 8.18566C5.78304 7.90436 5.625 7.52283 5.625 7.125ZM8.625 16.875C8.625 17.1717 8.53703 17.4617 8.37221 17.7084C8.20738 17.955 7.97312 18.1473 7.69903 18.2608C7.42494 18.3744 7.12334 18.4041 6.83237 18.3462C6.54139 18.2883 6.27412 18.1454 6.06434 17.9357C5.85456 17.7259 5.7117 17.4586 5.65382 17.1676C5.59595 16.8767 5.62565 16.5751 5.73918 16.301C5.85271 16.0269 6.04497 15.7926 6.29165 15.6278C6.53832 15.463 6.82833 15.375 7.125 15.375H8.625V16.875ZM10.875 10.875H13.125V13.125H10.875V10.875ZM16.875 18.375C16.4772 18.375 16.0956 18.217 15.8143 17.9357C15.533 17.6544 15.375 17.2728 15.375 16.875V15.375H16.875C17.2728 15.375 17.6544 15.533 17.9357 15.8143C18.217 16.0956 18.375 16.4772 18.375 16.875C18.375 17.2728 18.217 17.6544 17.9357 17.9357C17.6544 18.217 17.2728 18.375 16.875 18.375Z" fill="url(#paint0_linear_233_3129)"/>
<defs>
<linearGradient id="paint0_linear_233_3129" x1="12" y1="3.375" x2="12" y2="20.625" gradientUnits="userSpaceOnUse">
<stop stop-color="#8791FD"/>
<stop offset="1" stop-color="#248FF9"/>
</linearGradient>
</defs>
</svg>
