<svg width="739" height="208" viewBox="0 0 739 208" fill="none" xmlns="http://www.w3.org/2000/svg">
<rect opacity="0.100655" y="46" width="739" height="161" rx="24" fill="#3F8CFF"/>
<mask id="mask0_133_5048" style="mask-type:luminance" maskUnits="userSpaceOnUse" x="0" y="46" width="739" height="161">
<rect y="46" width="739" height="161" rx="24" fill="white"/>
</mask>
<g mask="url(#mask0_133_5048)">
<path fill-rule="evenodd" clip-rule="evenodd" d="M347.441 215.509L251.569 249.081C248.252 250.242 244.622 248.495 243.461 245.178L195.359 107.813C194.198 104.496 195.945 100.866 199.261 99.704L295.133 66.133C298.45 64.971 302.08 66.718 303.242 70.035L351.343 207.4C352.505 210.717 350.758 214.347 347.441 215.509Z" fill="#A4C8FF"/>
<path fill-rule="evenodd" clip-rule="evenodd" d="M344.046 210.827L251.302 243.303L203.624 107.148L296.367 74.6721L344.046 210.827Z" fill="#87AFED"/>
<path fill-rule="evenodd" clip-rule="evenodd" d="M341.476 207.583L248.733 240.059L201.965 106.504L294.708 74.0281L341.476 207.583Z" fill="white"/>
<path fill-rule="evenodd" clip-rule="evenodd" d="M308.577 219.103C308.577 219.103 329.231 201.685 332.81 183.543C332.81 183.543 327.077 192.532 315.154 194.174C315.154 194.174 314.74 213.22 308.577 219.103Z" fill="#87AFED"/>
<path fill-rule="evenodd" clip-rule="evenodd" d="M297.116 115.593C297.143 115.67 285.098 119.956 270.218 125.167C255.331 130.38 243.246 134.543 243.22 134.466C243.193 134.391 255.235 130.105 270.121 124.892C285.002 119.681 297.09 115.518 297.116 115.593Z" fill="#89B8FF"/>
<path fill-rule="evenodd" clip-rule="evenodd" d="M268.831 134.807C268.838 134.825 268.527 134.955 267.958 135.173C267.341 135.401 266.526 135.703 265.54 136.069C263.494 136.813 260.661 137.822 257.526 138.92C254.39 140.018 251.546 140.997 249.483 141.691C248.485 142.021 247.659 142.293 247.034 142.5C246.454 142.684 246.13 142.778 246.123 142.758C246.117 142.739 246.428 142.61 246.997 142.392C247.614 142.164 248.429 141.862 249.415 141.497C251.461 140.752 254.294 139.743 257.43 138.645C260.565 137.547 263.408 136.569 265.472 135.874C266.47 135.545 267.295 135.272 267.921 135.066C268.501 134.881 268.825 134.788 268.831 134.807Z" fill="#89B8FF"/>
<path fill-rule="evenodd" clip-rule="evenodd" d="M298.403 119.268C298.429 119.344 286.385 123.631 271.504 128.842C256.618 134.055 244.533 138.217 244.507 138.141C244.48 138.066 256.522 133.779 271.408 128.567C286.289 123.356 298.376 119.193 298.403 119.268Z" fill="#89B8FF"/>
<path fill-rule="evenodd" clip-rule="evenodd" d="M244.605 167.5L239.721 169.21C237.939 169.834 235.989 168.895 235.365 167.113L233.655 162.229C233.03 160.447 233.969 158.497 235.751 157.873L240.635 156.163C242.417 155.539 244.367 156.477 244.991 158.259L246.701 163.143C247.325 164.925 246.387 166.876 244.605 167.5Z" fill="#A4C8FF"/>
<path fill-rule="evenodd" clip-rule="evenodd" d="M240.039 164.57L240.031 164.573L239.806 164.548L237.57 163.252C237.436 163.174 237.391 163.003 237.469 162.869C237.546 162.735 237.717 162.689 237.851 162.767L239.823 163.91L242.185 158.858C242.251 158.718 242.418 158.658 242.557 158.723C242.697 158.789 242.757 158.956 242.692 159.095L240.2 164.424L240.039 164.57Z" fill="#FFFFFE"/>
<path fill-rule="evenodd" clip-rule="evenodd" d="M304.084 135.493C304.111 135.569 292.067 139.856 277.186 145.067C262.3 150.279 250.215 154.442 250.188 154.366C250.162 154.29 262.203 150.004 277.089 144.791C291.97 139.581 304.058 135.417 304.084 135.493Z" fill="#89B8FF"/>
<path fill-rule="evenodd" clip-rule="evenodd" d="M275.8 154.706C275.806 154.725 275.495 154.854 274.926 155.072C274.309 155.3 273.494 155.602 272.508 155.967C270.462 156.712 267.629 157.721 264.494 158.819C261.359 159.918 258.514 160.896 256.451 161.591C255.453 161.92 254.628 162.192 254.003 162.399C253.423 162.584 253.098 162.676 253.092 162.658C253.085 162.638 253.396 162.509 253.965 162.292C254.582 162.063 255.397 161.761 256.383 161.396C258.429 160.652 261.262 159.642 264.398 158.544C267.533 157.446 270.377 156.467 272.44 155.773C273.438 155.444 274.263 155.172 274.888 154.965C275.469 154.78 275.793 154.687 275.8 154.706Z" fill="#89B8FF"/>
<path fill-rule="evenodd" clip-rule="evenodd" d="M305.371 139.168C305.398 139.244 293.353 143.53 278.472 148.741C263.587 153.954 251.502 158.117 251.475 158.041C251.449 157.965 263.49 153.678 278.376 148.466C293.257 143.256 305.344 139.091 305.371 139.168Z" fill="#89B8FF"/>
<path fill-rule="evenodd" clip-rule="evenodd" d="M251.573 187.399L246.689 189.109C244.907 189.733 242.957 188.795 242.333 187.012L240.623 182.129C239.999 180.346 240.937 178.396 242.719 177.772L247.603 176.062C249.385 175.438 251.336 176.377 251.96 178.159L253.67 183.043C254.294 184.824 253.355 186.775 251.573 187.399Z" fill="#A4C8FF"/>
<path fill-rule="evenodd" clip-rule="evenodd" d="M247.008 184.469L246.999 184.472L246.775 184.447L244.538 183.151C244.405 183.073 244.359 182.902 244.437 182.768C244.514 182.634 244.685 182.589 244.819 182.667L246.791 183.809L249.154 178.758C249.219 178.618 249.386 178.557 249.525 178.623C249.665 178.688 249.726 178.855 249.66 178.995L247.169 184.324L247.008 184.469Z" fill="#FFFFFE"/>
<path fill-rule="evenodd" clip-rule="evenodd" d="M311.052 155.392C311.079 155.468 299.034 159.756 284.154 164.966C269.268 170.178 257.183 174.341 257.157 174.265C257.13 174.189 269.172 169.903 284.058 164.691C298.938 159.48 311.026 155.316 311.052 155.392Z" fill="#89B8FF"/>
<path fill-rule="evenodd" clip-rule="evenodd" d="M282.768 174.605C282.775 174.625 282.463 174.754 281.894 174.971C281.277 175.2 280.462 175.502 279.476 175.867C277.43 176.611 274.597 177.621 271.463 178.718C268.327 179.817 265.483 180.796 263.419 181.49C262.421 181.819 261.596 182.091 260.971 182.299C260.391 182.483 260.067 182.576 260.06 182.557C260.053 182.538 260.365 182.409 260.933 182.191C261.551 181.963 262.365 181.661 263.351 181.296C265.397 180.551 268.23 179.542 271.366 178.443C274.501 177.345 277.345 176.367 279.408 175.673C280.407 175.343 281.232 175.071 281.857 174.864C282.437 174.679 282.761 174.587 282.768 174.605Z" fill="#89B8FF"/>
<path fill-rule="evenodd" clip-rule="evenodd" d="M312.339 159.067C312.366 159.143 300.322 163.429 285.441 168.64C270.555 173.853 258.47 178.016 258.443 177.94C258.417 177.864 270.459 173.578 285.345 168.366C300.225 163.155 312.313 158.991 312.339 159.067Z" fill="#89B8FF"/>
<path fill-rule="evenodd" clip-rule="evenodd" d="M258.541 207.299L253.657 209.008C251.876 209.633 249.925 208.694 249.301 206.912L247.591 202.028C246.967 200.246 247.906 198.296 249.688 197.672L254.571 195.962C256.354 195.338 258.304 196.276 258.928 198.058L260.638 202.942C261.262 204.723 260.323 206.674 258.541 207.299Z" fill="#A4C8FF"/>
<path fill-rule="evenodd" clip-rule="evenodd" d="M253.976 204.369L253.967 204.372L253.743 204.346L251.507 203.05C251.373 202.972 251.327 202.801 251.405 202.668C251.482 202.534 251.654 202.489 251.787 202.566L253.759 203.709L256.121 198.657C256.187 198.517 256.354 198.457 256.493 198.522C256.634 198.588 256.694 198.754 256.629 198.894L254.137 204.223L253.976 204.369Z" fill="#FFFFFE"/>
<path fill-rule="evenodd" clip-rule="evenodd" d="M318.021 175.292C318.047 175.368 306.003 179.654 291.122 184.865C276.236 190.078 264.151 194.241 264.125 194.165C264.098 194.089 276.14 189.802 291.026 184.591C305.906 179.38 317.994 175.216 318.021 175.292Z" fill="#89B8FF"/>
<path fill-rule="evenodd" clip-rule="evenodd" d="M289.736 194.505C289.743 194.524 289.431 194.653 288.863 194.871C288.245 195.099 287.43 195.401 286.445 195.766C284.399 196.51 281.566 197.52 278.431 198.618C275.295 199.716 272.451 200.695 270.387 201.389C269.389 201.718 268.564 201.991 267.939 202.198C267.359 202.383 267.035 202.475 267.028 202.457C267.022 202.437 267.333 202.308 267.902 202.091C268.519 201.862 269.334 201.56 270.32 201.195C272.365 200.45 275.199 199.441 278.335 198.342C281.47 197.245 284.313 196.266 286.377 195.572C287.375 195.243 288.2 194.969 288.825 194.763C289.406 194.579 289.73 194.486 289.736 194.505Z" fill="#89B8FF"/>
<path fill-rule="evenodd" clip-rule="evenodd" d="M319.307 178.966C319.334 179.043 307.29 183.329 292.409 188.54C277.523 193.753 265.438 197.916 265.411 197.84C265.385 197.763 277.427 193.477 292.313 188.265C307.193 183.054 319.281 178.89 319.307 178.966Z" fill="#89B8FF"/>
<path fill-rule="evenodd" clip-rule="evenodd" d="M212.468 93.4929L214.917 100.484C216.337 104.541 220.777 106.678 224.834 105.258L276.132 87.2939C280.188 85.8739 282.325 81.4329 280.905 77.3769L278.461 70.3989L212.468 93.4929Z" fill="#87AFED"/>
<path fill-rule="evenodd" clip-rule="evenodd" d="M242.249 72.8829C239.908 73.7019 238.67 76.2739 239.49 78.6149C240.31 80.9569 242.882 82.1939 245.223 81.3739C247.564 80.5539 248.802 77.9829 247.982 75.6419C247.162 73.2999 244.591 72.0629 242.249 72.8829ZM246.148 84.0159C242.35 85.3449 238.178 83.3379 236.848 79.5399C235.519 75.7429 237.527 71.5709 241.324 70.2409C245.122 68.9109 249.293 70.9189 250.623 74.7169C251.953 78.5139 249.946 82.6859 246.148 84.0159Z" fill="#87AFED"/>
<path fill-rule="evenodd" clip-rule="evenodd" d="M287.15 102.152C287.197 102.285 273.671 107.142 256.943 113C240.209 118.86 226.611 123.501 226.564 123.367C226.518 123.235 240.041 118.379 256.775 112.519C273.502 106.661 287.104 102.019 287.15 102.152Z" fill="#89B8FF"/>
<path fill-rule="evenodd" clip-rule="evenodd" d="M269.827 104.639C269.873 104.772 263.919 106.978 256.53 109.566C249.137 112.154 243.109 114.145 243.062 114.012C243.015 113.879 248.968 111.674 256.361 109.085C263.751 106.497 269.781 104.507 269.827 104.639Z" fill="#89B8FF"/>
<path fill-rule="evenodd" clip-rule="evenodd" d="M237.636 147.6L232.753 149.31C230.971 149.934 229.02 148.996 228.396 147.214L226.686 142.33C226.062 140.548 227.001 138.597 228.783 137.973L233.667 136.263C235.449 135.639 237.399 136.578 238.023 138.36L239.733 143.244C240.357 145.026 239.419 146.976 237.636 147.6Z" fill="#A4C8FF"/>
<path fill-rule="evenodd" clip-rule="evenodd" d="M233.071 144.671L233.062 144.674L232.838 144.649L230.602 143.352C230.468 143.275 230.423 143.103 230.5 142.969C230.578 142.837 230.749 142.79 230.883 142.868L232.855 144.011L235.217 138.959C235.282 138.819 235.449 138.758 235.589 138.824C235.729 138.889 235.789 139.056 235.724 139.196L233.232 144.525L233.071 144.671Z" fill="#FFFFFE"/>
<path fill-rule="evenodd" clip-rule="evenodd" d="M418.8 170.429C418.362 167.495 409.587 157.788 409.587 157.788C409.587 157.788 405.2 140.18 403.884 134.988C403.556 133.69 402.85 132.216 401.977 130.735C398.915 125.541 394.425 121.335 389.169 118.38L377.027 111.552L374.121 105.088L344.947 90.0991L337.037 104.053C337.037 104.053 317.827 110.159 315.285 114.52C312.742 118.881 316.546 177.318 316.546 177.318C316.546 177.318 308.505 211.043 306.81 218.02C305.115 224.998 307.356 233.324 307.356 233.324L321.663 215.367C326.108 209.788 335.871 207.224 342.881 207.323L402.791 207.588L400.408 190.806L448.851 200.227C448.851 200.227 457.186 183.974 457.844 183.647C458.502 183.32 418.8 170.429 418.8 170.429Z" fill="#FDC748"/>
<path fill-rule="evenodd" clip-rule="evenodd" d="M428.033 167.713L407.159 204.22L355.728 205.339L355.6 207.668L405.4 207.298L406.979 207.244L459.566 207.347L470.193 189.02L483.768 169.564C484.657 168.289 483.741 166.54 482.186 166.546L429.693 166.746C429.007 166.749 428.374 167.117 428.033 167.713Z" fill="#3F8CFF"/>
<path fill-rule="evenodd" clip-rule="evenodd" d="M333.796 207.323C333.693 207.323 333.59 207.323 333.487 207.323C329.39 207.312 325.255 207.197 321.277 206.217C317.425 205.269 314.049 202.795 311.413 199.819C323.796 202.61 337.197 204.522 337.197 204.522L338.265 200.017C342.858 200.968 347.413 202.103 351.916 203.417C351.983 204.547 351.04 205.546 349.962 205.893C349.517 206.037 349.057 206.093 348.591 206.093C347.928 206.093 347.256 205.979 346.606 205.84C345.603 205.625 344.596 205.351 343.575 205.351C343.469 205.351 343.362 205.354 343.255 205.36C341.567 205.461 340.051 206.384 338.425 206.852C336.93 207.284 335.355 207.323 333.796 207.323Z" fill="#D6A637"/>
<path fill-rule="evenodd" clip-rule="evenodd" d="M470.193 189.02C470.193 189.02 472.895 191.497 472.468 193.601C472.041 195.705 472.184 197.269 470.193 197.412C470.193 197.412 470.335 200.114 467.49 200.541C467.49 200.541 468.1 203.84 464.26 204.409C464.26 204.409 463.081 207.936 460.663 207.084C458.245 206.23 456.681 205.234 456.681 205.234L455.97 203.955C455.97 203.955 452.407 202.615 453.285 200.603C453.818 199.383 455.66 199.065 455.66 199.065C455.66 199.065 454.894 197.274 455.888 195.937C456.742 194.79 459.524 195.738 459.524 195.738C459.524 195.738 459.359 194.257 460.405 193.016C461.351 191.893 465.779 194.945 465.779 194.945L468.194 192.06L470.193 189.02Z" fill="#FFB27D"/>
</g>
<path fill-rule="evenodd" clip-rule="evenodd" d="M343.7 109.539C343.28 109.111 347.087 121.965 351.864 135.055C354.438 142.109 355.728 149.59 355.728 157.124V204.522L384.454 202.571L380.16 171.348C380.16 171.348 376.658 151.207 375.678 143.547C374.78 136.533 371.695 117.513 371.695 117.513C371.695 117.513 355.728 121.788 343.7 109.539Z" fill="#FFFFFE"/>
<path fill-rule="evenodd" clip-rule="evenodd" d="M407.444 182.207C407.41 182.204 407.401 181.946 407.442 181.484C407.482 181.021 407.592 180.355 407.82 179.552C408.262 177.956 409.285 175.799 411.102 173.979C412.919 172.158 415.073 171.131 416.67 170.684C417.472 170.455 418.138 170.343 418.6 170.302C419.063 170.26 419.32 170.27 419.323 170.303C419.335 170.392 418.317 170.501 416.782 171.035C415.255 171.558 413.215 172.599 411.471 174.347C409.727 176.094 408.691 178.136 408.17 179.665C407.639 181.2 407.532 182.219 407.444 182.207Z" fill="#D6A637"/>
<path fill-rule="evenodd" clip-rule="evenodd" d="M408.923 170.836C408.861 170.721 410.748 169.766 413.309 169.565C415.868 169.344 417.887 169.979 417.843 170.101C417.813 170.257 415.815 169.87 413.352 170.084C410.887 170.275 408.979 170.983 408.923 170.836Z" fill="#D6A637"/>
<path fill-rule="evenodd" clip-rule="evenodd" d="M395.652 200.324L388.604 192.838L374.105 189.169C374.105 189.169 360.82 193.149 360.502 193.137C360.184 193.126 348.939 190.065 348.939 190.065L345.009 204.48L365.261 205.867L388.385 204.941C388.385 204.941 389.591 203.818 388.876 203.05C388.161 202.283 392.742 204.348 393.281 204.374C393.811 204.398 394.867 204.812 395.581 203.948C396.068 203.359 396.729 201.467 395.652 200.324Z" fill="#FFB27D"/>
<path fill-rule="evenodd" clip-rule="evenodd" d="M388.876 203.05C388.849 203.122 387.978 202.841 386.572 202.395C385.167 201.949 383.223 201.353 381.048 200.796C378.871 200.24 376.879 199.827 375.433 199.537C373.988 199.248 373.091 199.067 373.101 198.992C373.11 198.924 374.026 198.976 375.494 199.174C376.963 199.372 378.983 199.731 381.177 200.291C383.37 200.853 385.314 201.51 386.695 202.048C388.076 202.586 388.902 202.987 388.876 203.05Z" fill="#ED975D"/>
<path fill-rule="evenodd" clip-rule="evenodd" d="M395.652 200.323C395.622 200.396 394.411 199.944 392.435 199.286C390.461 198.62 387.703 197.805 384.636 196.948C381.572 196.038 378.844 195.128 376.775 195.007C374.714 194.832 373.457 195.239 373.437 195.137C373.429 195.109 373.731 194.983 374.305 194.845C374.88 194.706 375.738 194.602 376.797 194.639C378.934 194.669 381.746 195.547 384.778 196.447C387.847 197.304 390.607 198.18 392.559 198.939C393.537 199.313 394.316 199.646 394.848 199.89C395.38 200.135 395.665 200.291 395.652 200.323Z" fill="#ED975D"/>
<path fill-rule="evenodd" clip-rule="evenodd" d="M315.285 114.52C315.285 114.52 304.833 121.788 302.29 132.255C299.748 142.721 288.73 185.458 290.99 191.854C293.25 198.25 337.197 204.522 337.197 204.522L342.404 182.55L320.087 176.445C320.087 176.445 320.369 156.094 320.652 147.663C320.934 139.232 315.285 114.52 315.285 114.52Z" fill="#F1BD44"/>
<path fill-rule="evenodd" clip-rule="evenodd" d="M342.112 185.828L349.303 187.598L344.977 204.182L337.911 203.05L342.112 185.828Z" fill="#FFFFFE"/>
<path fill-rule="evenodd" clip-rule="evenodd" d="M290.825 189.592C290.862 189.592 290.804 189.958 290.932 190.628C291.074 191.286 291.501 192.243 292.464 193.122C294.374 194.9 298.021 196.381 302.647 197.214L302.662 197.216L302.679 197.222C304.794 197.917 307.2 198.468 309.776 199.051C312.356 199.628 315.122 200.218 318.047 200.813C323.894 202.008 330.364 203.266 337.218 204.549L336.92 204.742C337.417 202.705 337.942 200.549 338.474 198.365C339.707 193.323 340.901 188.439 342.033 183.808L342.209 184.11C334.828 182.003 328.093 180.081 322.375 178.448L322.363 178.445L322.352 178.44C319.324 177.2 316.312 176.748 313.701 176.925C311.078 177.045 308.879 177.747 307.172 178.459C305.462 179.191 304.238 179.987 303.421 180.536C303.043 180.812 302.742 181.031 302.512 181.198C302.306 181.347 302.197 181.42 302.191 181.412C302.184 181.404 302.28 181.315 302.474 181.151C302.671 180.99 302.955 180.738 303.351 180.439C304.15 179.856 305.363 179.022 307.08 178.249C308.793 177.497 311.014 176.753 313.681 176.6C316.335 176.39 319.411 176.822 322.508 178.065L322.485 178.057C328.212 179.663 334.955 181.554 342.346 183.627L342.579 183.692L342.522 183.927C341.395 188.559 340.207 193.445 338.98 198.488C338.447 200.673 337.92 202.827 337.423 204.865L337.364 205.103L337.124 205.058C330.266 203.766 323.799 202.491 317.953 201.266C315.029 200.658 312.263 200.05 309.683 199.455C307.104 198.852 304.709 198.284 302.559 197.554L302.591 197.563C297.915 196.673 294.258 195.133 292.331 193.261C291.362 192.338 290.946 191.328 290.834 190.646C290.735 189.953 290.825 189.592 290.825 189.592Z" fill="#D6A637"/>
<path fill-rule="evenodd" clip-rule="evenodd" d="M321.292 177.902C321.23 177.968 320.486 177.285 319.145 176.387C317.808 175.487 315.828 174.429 313.47 173.738C311.108 173.055 308.87 172.884 307.259 172.925C305.646 172.964 304.651 173.139 304.635 173.05C304.621 172.999 305.598 172.692 307.241 172.557C308.879 172.42 311.189 172.536 313.615 173.238C316.039 173.948 318.05 175.09 319.357 176.087C320.671 177.082 321.33 177.865 321.292 177.902Z" fill="#D6A637"/>
<path fill-rule="evenodd" clip-rule="evenodd" d="M341.155 134.806C339.75 131.515 338.916 127.967 338.704 124.379C339.546 126.821 340.489 129.082 341.414 131.071L341.72 131.729L341.86 131.017C342.166 129.462 343.377 128.308 344.604 127.911C344.982 127.784 345.357 127.729 345.718 127.729C345.92 127.729 346.117 127.746 346.309 127.778C347.338 128.097 348.269 128.793 348.951 129.662C349.916 130.891 350.438 132.43 350.754 133.976C349.484 132.656 347.782 131.535 346.03 131.535C345.724 131.535 345.415 131.569 345.108 131.643C343.451 132.039 342.243 133.462 341.155 134.806ZM341.583 130.29C341.055 129.093 340.523 127.809 340.008 126.456L341.61 130.218C341.601 130.242 341.592 130.266 341.583 130.29ZM341.764 129.872C342.065 128.999 342.769 128.301 343.611 127.916C342.865 128.342 342.19 129.012 341.764 129.872Z" fill="#D6A637"/>
<path fill-rule="evenodd" clip-rule="evenodd" d="M341.72 131.729L341.414 131.071C340.489 129.082 339.546 126.821 338.704 124.379C338.686 124.09 338.673 123.802 338.664 123.513L338.783 123.579L340.008 126.456C340.523 127.809 341.055 129.093 341.583 130.29C341.592 130.266 341.601 130.242 341.61 130.218L341.65 130.31C341.676 130.16 341.715 130.014 341.764 129.872C342.19 129.012 342.865 128.342 343.611 127.916C344.045 127.718 344.516 127.603 344.987 127.59C345.022 127.589 345.057 127.589 345.092 127.589C345.506 127.589 345.915 127.655 346.309 127.778C346.117 127.746 345.92 127.729 345.718 127.729C345.357 127.729 344.982 127.784 344.604 127.911C343.377 128.308 342.166 129.462 341.86 131.017L341.72 131.729Z" fill="#D6A637"/>
<path fill-rule="evenodd" clip-rule="evenodd" d="M379.818 63.137C378.634 52.034 369.119 43.706 357.958 43.993L356.848 44.021C344.905 45.028 339.087 55.733 340.424 67.644L343.7 109.539L345.088 111.242C351.509 119.124 362.43 121.697 371.695 117.513L370.777 104.035C370.777 104.035 382.231 101.952 382.077 90.451C382.003 84.896 380.918 73.467 379.818 63.137Z" fill="#FFB27D"/>
<path fill-rule="evenodd" clip-rule="evenodd" d="M370.867 104.016C370.867 104.016 363.536 104.647 355.689 99.9951C355.689 99.9951 359.445 108.178 370.89 106.847L370.867 104.016Z" fill="#ED975D"/>
<path fill-rule="evenodd" clip-rule="evenodd" d="M341.763 76.1111C341.565 76.0311 333.803 73.9771 334.256 81.8311C334.709 89.6841 342.501 87.6101 342.501 87.3831C342.502 87.1581 341.763 76.1111 341.763 76.1111Z" fill="#FFB27D"/>
<path fill-rule="evenodd" clip-rule="evenodd" d="M383.171 52.966C382.952 51.923 381.924 51.041 380.868 51.198C381.432 50.997 382.01 50.788 382.454 50.39C382.901 49.992 383.186 49.354 382.998 48.787C382.703 47.898 381.566 47.715 380.664 47.459C379.489 47.126 378.424 46.414 377.665 45.457C376.572 44.076 376.151 42.28 375.206 40.794C373.985 38.869 371.86 37.545 369.594 37.295C367.328 37.046 364.967 37.876 363.355 39.487C361.598 37.683 358.949 36.794 356.459 37.174C353.97 37.553 351.705 39.191 350.566 41.437C347.515 40.167 343.791 40.691 341.209 42.754C338.628 44.817 337.295 48.334 337.86 51.59L345.022 55.979C345.138 53.765 347.609 52.008 349.738 52.623C351.9 53.248 353.282 55.751 355.526 55.921C357.273 56.053 358.759 54.699 360.452 54.246C362.506 53.696 364.674 54.519 366.526 55.563C368.378 56.606 370.138 57.904 372.199 58.425C374.615 59.034 377.19 58.5 379.495 57.556C380.483 57.152 381.461 56.658 382.197 55.884C382.931 55.111 383.391 54.01 383.171 52.966Z" fill="#233862"/>
<path fill-rule="evenodd" clip-rule="evenodd" d="M346.266 52.603L379.063 52.416C377.981 50.183 376.111 48.423 374.093 46.979C369.743 43.867 364.451 41.995 359.103 42.05C353.756 42.105 343.055 48.918 339.285 52.711C336.268 55.747 336.359 58.299 336.359 58.299C335.984 62.562 338.497 67.326 339.559 71.472C340.106 73.611 341.228 80.095 341.228 80.095H341.229C343.035 80.038 343.666 78.583 343.342 76.805L342.81 69.81C342.81 69.81 348.83 65.274 345.698 57.366C345.213 56.743 344.136 53.852 346.266 52.603Z" fill="#233862"/>
<path fill-rule="evenodd" clip-rule="evenodd" d="M342.298 69.3441C340.629 63.5361 339.096 57.3131 340.87 51.5361C340.546 51.5231 340.221 51.5091 339.896 51.4961L339.491 51.7921C337.656 51.1751 335.461 51.8741 334.321 53.4381C333.181 55.0021 333.187 57.3061 334.335 58.8641C332.393 58.7731 330.528 60.3981 330.351 62.3351C330.229 63.6711 330.81 64.9631 331.406 66.1661C332.003 67.3681 332.644 68.6141 332.653 69.9561C332.661 71.2991 331.802 72.7561 330.469 72.9161C331.066 74.2911 332.734 75.1021 334.184 74.7201C333.723 75.8561 332.932 76.8541 331.932 77.5621C334.068 79.0171 337.001 78.5201 339.324 77.3881C340.703 76.7171 342.056 75.7601 342.619 74.3341C343.243 72.7541 342.767 70.9771 342.298 69.3441Z" fill="#233862"/>
<mask id="mask1_133_5048" style="mask-type:luminance" maskUnits="userSpaceOnUse" x="393" y="142" width="8" height="46">
<path fill-rule="evenodd" clip-rule="evenodd" d="M400.202 187.654C399.486 182.39 398.622 176.148 397.679 169.454C396.133 158.479 394.718 148.723 393.781 142.517C399.464 156.767 401.688 172.384 400.202 187.654Z" fill="white"/>
</mask>
<g mask="url(#mask1_133_5048)">
<path fill-rule="evenodd" clip-rule="evenodd" d="M393.781 187.654H401.688V142.517H393.781V187.654Z" fill="#D6A637"/>
</g>
<path fill-rule="evenodd" clip-rule="evenodd" d="M400.2 187.669L399.88 186.946L393.461 141.726C393.569 141.989 393.676 142.253 393.781 142.517C394.718 148.723 396.133 158.479 397.679 169.454C398.622 176.148 399.486 182.39 400.202 187.654C400.201 187.659 400.201 187.664 400.2 187.669Z" fill="#D6A637"/>
<path fill-rule="evenodd" clip-rule="evenodd" d="M464.26 204.409C464.184 204.531 462.197 203.433 459.822 201.958C457.447 200.482 455.584 199.187 455.66 199.065C455.736 198.943 457.722 200.04 460.098 201.515C462.472 202.991 464.335 204.287 464.26 204.409Z" fill="#ED975D"/>
<path fill-rule="evenodd" clip-rule="evenodd" d="M467.49 200.541C467.416 200.664 465.572 199.688 463.372 198.363C461.172 197.036 459.449 195.861 459.524 195.738C459.598 195.615 461.441 196.591 463.642 197.917C465.841 199.243 467.565 200.418 467.49 200.541Z" fill="#ED975D"/>
<path fill-rule="evenodd" clip-rule="evenodd" d="M463.088 193.301C463.168 193.154 464.819 194.024 466.739 195.24C468.661 196.466 470.211 197.421 470.173 197.518C470.101 197.688 468.384 196.909 466.463 195.681C464.534 194.461 463.031 193.408 463.088 193.301Z" fill="#ED975D"/>
<path fill-rule="evenodd" clip-rule="evenodd" d="M483.775 167.929C483.775 167.938 483.69 167.947 483.524 167.956C483.326 167.963 483.083 167.971 482.785 167.982C482.094 167.994 481.146 168.01 479.946 168.031C477.436 168.05 473.879 168.079 469.502 168.114C460.647 168.133 448.484 168.16 435.049 168.19C434.207 168.189 433.371 168.189 432.541 168.189C431.752 168.129 431.037 168.476 430.629 169.092C429.837 170.519 429.057 171.925 428.29 173.308C426.753 176.082 425.271 178.758 423.858 181.309C421.027 186.396 418.475 190.979 416.324 194.843C414.18 198.658 412.437 201.758 411.206 203.946C410.609 204.986 410.137 205.808 409.792 206.407C409.639 206.664 409.514 206.872 409.413 207.041C409.325 207.182 409.277 207.253 409.269 207.248C409.261 207.244 409.294 207.165 409.366 207.014C409.456 206.839 409.566 206.623 409.701 206.356C410.025 205.745 410.468 204.907 411.03 203.846C412.226 201.638 413.919 198.511 416.004 194.663C418.127 190.783 420.645 186.18 423.44 181.074C424.844 178.518 426.319 175.837 427.846 173.057C428.616 171.664 429.401 170.246 430.196 168.807C430.682 168.031 431.667 167.593 432.541 167.67C433.371 167.67 434.207 167.669 435.049 167.669C448.484 167.699 460.647 167.725 469.502 167.745C473.879 167.78 477.436 167.808 479.946 167.828C481.146 167.848 482.094 167.865 482.785 167.877C483.084 167.887 483.326 167.896 483.524 167.903C483.69 167.912 483.775 167.921 483.775 167.929Z" fill="#132529"/>
<path fill-rule="evenodd" clip-rule="evenodd" d="M446.769 186.282C445.839 187.311 445.818 188.805 446.719 189.619C447.621 190.432 449.106 190.258 450.034 189.227C450.963 188.198 450.986 186.704 450.083 185.89C449.182 185.077 447.697 185.252 446.769 186.282Z" fill="#FFFFFE"/>
<path fill-rule="evenodd" clip-rule="evenodd" d="M317.787 175.04C316.632 174.362 315.213 173.706 313.615 173.238C311.759 172.701 309.971 172.507 308.5 172.507C308.048 172.507 307.626 172.525 307.241 172.557C305.973 172.661 305.102 172.868 304.776 172.98C304.096 173.06 303.402 173.176 302.693 173.333C302.339 173.411 301.117 173.913 300.646 173.913C300.613 173.913 300.583 173.91 300.557 173.905C300.177 173.823 299.814 173.509 299.819 173.12C299.823 172.64 300.331 172.342 300.777 172.163C302.824 171.339 305.293 170.925 307.724 170.925C312.124 170.925 316.397 172.279 317.805 174.996C317.799 175.011 317.793 175.026 317.787 175.04ZM315.968 174.651C313.755 173.854 311.641 173.262 309.484 172.999C310.698 173.106 312.062 173.331 313.47 173.738C314.362 173.999 315.199 174.313 315.968 174.651Z" fill="#D6A637"/>
<path fill-rule="evenodd" clip-rule="evenodd" d="M317.707 175.307C317.119 175.076 316.54 174.857 315.968 174.651C315.199 174.313 314.362 173.999 313.47 173.738C312.062 173.331 310.698 173.106 309.484 172.999C308.678 172.9 307.867 172.848 307.042 172.848C306.299 172.848 305.546 172.89 304.776 172.98C305.102 172.868 305.973 172.661 307.241 172.557C307.626 172.525 308.048 172.507 308.5 172.507C309.971 172.507 311.759 172.701 313.615 173.238C315.213 173.706 316.632 174.362 317.787 175.04C317.721 175.208 317.693 175.3 317.707 175.307ZM317.764 175.249C317.788 175.215 317.82 175.166 317.858 175.103C317.864 175.114 317.869 175.125 317.874 175.136L317.764 175.249Z" fill="#D6A637"/>
<path fill-rule="evenodd" clip-rule="evenodd" d="M317.707 175.307C317.693 175.3 317.721 175.208 317.787 175.04C317.793 175.026 317.799 175.011 317.805 174.996C317.823 175.032 317.841 175.067 317.858 175.103C317.82 175.166 317.788 175.215 317.764 175.249L317.707 175.307Z" fill="#051317"/>
<path fill-rule="evenodd" clip-rule="evenodd" d="M401.675 18.447L404.289 21.521L411.667 18.447L409.516 15.219L401.675 18.447Z" fill="#3F8CFF"/>
<path fill-rule="evenodd" clip-rule="evenodd" d="M398.293 3.843C398.293 5.965 396.573 7.686 394.45 7.686C392.328 7.686 390.608 5.965 390.608 3.843C390.608 1.721 392.328 0 394.45 0C396.573 0 398.293 1.721 398.293 3.843Z" fill="#FDC748"/>
<path fill-rule="evenodd" clip-rule="evenodd" d="M365.271 17.119C365.271 18.18 364.411 19.04 363.35 19.04C362.288 19.04 361.428 18.18 361.428 17.119C361.428 16.058 362.288 15.197 363.35 15.197C364.411 15.197 365.271 16.058 365.271 17.119Z" fill="#FDC748"/>
<path fill-rule="evenodd" clip-rule="evenodd" d="M277.819 40.261C277.819 41.066 277.166 41.718 276.361 41.718C275.556 41.718 274.903 41.066 274.903 40.261C274.903 39.456 275.556 38.803 276.361 38.803C277.166 38.803 277.819 39.456 277.819 40.261Z" fill="#FDC748"/>
<path fill-rule="evenodd" clip-rule="evenodd" d="M272.399 24.1869L276.703 24.4479L278.746 15.9939L274.727 16.1579L272.399 24.1869Z" fill="#3F8CFF"/>
<path fill-rule="evenodd" clip-rule="evenodd" d="M404.803 51.7169L406.25 55.7789L414.828 54.3429L413.102 50.7109L404.803 51.7169Z" fill="#FDC748"/>
<path fill-rule="evenodd" clip-rule="evenodd" d="M318.018 23.292L315.368 26.693L321.184 33.159L323.322 29.753L318.018 23.292Z" fill="#3F8CFF"/>
<path fill-rule="evenodd" clip-rule="evenodd" d="M394.811 74.8221L408.935 76.3781C412.334 71.5381 417.071 67.5471 422.902 65.0381C439.671 57.8211 459.115 65.5651 466.332 82.3341C473.549 99.1031 465.806 118.548 449.036 125.765C432.267 132.982 412.822 125.238 405.605 108.468C402.592 101.467 402.196 94.0001 403.967 87.1501L403.957 87.1661L394.811 74.8221Z" fill="white"/>
<path fill-rule="evenodd" clip-rule="evenodd" d="M450.763 82.5322C451.294 82.9589 446.322 90.2173 439.661 98.7445C438.331 100.446 437.033 102.069 435.831 103.545L435.041 104.513L434.155 103.706C428.386 98.4341 424.471 94.3886 424.824 93.973C425.179 93.5559 429.697 96.8977 435.678 101.918L434.005 102.078C435.146 100.552 436.408 98.9006 437.739 97.1986C444.4 88.6729 450.233 82.1071 450.763 82.5322Z" fill="#3F8CFF"/>
<path fill-rule="evenodd" clip-rule="evenodd" d="M519.63 170.634L446.905 143.131C441.88 141.23 439.347 135.615 441.247 130.59L479.316 29.931C481.217 24.905 486.831 22.372 491.857 24.272L537.979 41.715L559.764 92.015L532.17 164.976C530.27 170.002 524.655 172.535 519.63 170.634Z" fill="#D1E3FF"/>
<path fill-rule="evenodd" clip-rule="evenodd" d="M537.979 41.7148L527.265 70.0448C525.496 74.7178 527.852 79.9408 532.526 81.7088L559.764 92.0148L537.979 41.7148Z" fill="#B7D3FF"/>
<path fill-rule="evenodd" clip-rule="evenodd" d="M526.696 72.6719C526.696 72.6719 523.739 79.4069 530.707 84.6239C530.969 84.8199 531.245 84.9969 531.527 85.1639C534.842 87.1449 556.682 100.165 556.885 99.6279C557.105 99.0459 559.764 92.0149 559.764 92.0149L532.524 81.7129C532.524 81.7129 525.811 78.9079 526.696 72.6719Z" fill="#A3C2F2"/>
<path fill-rule="evenodd" clip-rule="evenodd" d="M521.604 66.582C521.466 66.946 513.822 64.393 504.532 60.88C495.239 57.365 487.821 54.222 487.958 53.858C488.096 53.494 495.739 56.047 505.03 59.561C514.321 63.074 521.741 66.218 521.604 66.582Z" fill="#A3C2F2"/>
<path fill-rule="evenodd" clip-rule="evenodd" d="M537.275 90.8181C537.137 91.1811 524.629 86.7881 509.34 81.0061C494.045 75.2221 481.763 70.2391 481.901 69.8751C482.038 69.5111 494.544 73.9041 509.838 79.6881C525.127 85.4701 537.412 90.4531 537.275 90.8181Z" fill="#A3C2F2"/>
<path fill-rule="evenodd" clip-rule="evenodd" d="M537.203 106.079C537.066 106.443 523.441 101.627 506.775 95.324C490.104 89.02 476.704 83.615 476.842 83.251C476.98 82.887 490.602 87.701 507.274 94.007C523.94 100.309 537.341 105.715 537.203 106.079Z" fill="#A3C2F2"/>
<path fill-rule="evenodd" clip-rule="evenodd" d="M532.431 118.698C532.293 119.062 518.668 114.247 502.002 107.944C485.331 101.639 471.932 96.2339 472.07 95.8699C472.207 95.5059 485.829 100.32 502.501 106.626C519.167 112.928 532.569 118.334 532.431 118.698Z" fill="#A3C2F2"/>
<path fill-rule="evenodd" clip-rule="evenodd" d="M527.658 131.317C527.521 131.681 513.896 126.866 497.23 120.563C480.558 114.258 467.159 108.853 467.297 108.489C467.435 108.125 481.057 112.94 497.729 119.245C514.394 125.548 527.796 130.953 527.658 131.317Z" fill="#A3C2F2"/>
<path fill-rule="evenodd" clip-rule="evenodd" d="M522.886 143.937C522.748 144.3 509.123 139.485 492.457 133.182C475.785 126.877 462.387 121.472 462.525 121.109C462.662 120.744 476.284 125.559 492.956 131.864C509.621 138.167 523.024 143.572 522.886 143.937Z" fill="#A3C2F2"/>
</svg>
